# xmcd
#
# Track frame offsets: 
#        150
#        25762
#        43451
#        62316
#        84078
#        107142
#        129757
#        149501
#        174454
#        189657
#
# Disc length: 2880 seconds
#
# Revision: 0
# Processed by: cddbd v1.5.1PL2 Copyright (c) Steve Scherf et al.
# Submitted via: ExactAudioCopy v0.95b3
#
DISCID=7f0b3e0a
DTITLE=Bishop - Milite - North-South-East-West
DYEAR=2004
DGENRE=Blues
TTITLE0=Don't Call Me
TTITLE1=I've Been Abused
TTITLE2=Good In My Kitchen
TTITLE3=Lovin' Cup
TTITLE4=Midnight Blue
TTITLE5=Last Night
TTITLE6=Pawnshop Bound
TTITLE7=19 Years Old
TTITLE8=Thorn In My Side
TTITLE9=Christo Redentor
EXTD=
EXTT0=
EXTT1=
EXTT2=
EXTT3=
EXTT4=
EXTT5=
EXTT6=
EXTT7=
EXTT8=
EXTT9=
PLAYORDER=
